<?xml version="1.0" encoding="utf-8"?>
<!-- Generator: Adobe Illustrator 16.0.3, SVG Export Plug-In . SVG Version: 6.00 Build 0)  -->
<!DOCTYPE svg PUBLIC "-//W3C//DTD SVG 1.1//EN" "http://www.w3.org/Graphics/SVG/1.1/DTD/svg11.dtd">
<svg version="1.1" id="Layer_1" xmlns="http://www.w3.org/2000/svg" xmlns:xlink="http://www.w3.org/1999/xlink" x="0px" y="0px"
	 width="75.16px" height="45.372px" viewBox="964.881 977.152 75.16 45.372" enable-background="new 964.881 977.152 75.16 45.372"
	 xml:space="preserve">
<title>uofl-monogram_RGB</title>
<g id="Monogram_Knocked_Out_Red">
	<g>
		<g>
			<path fill="#AD0000" d="M1000.281,1005.216c-3.34,0-5.154-2.428-5.154-5.655s1.942-5.598,5.104-5.598
				c3.161,0,4.933,2.475,5.03,5.295v-22.105h-11.479v26.145c0,6.017-1.554,10.845-8.588,10.845c-7.652,0-8.778-5.438-8.778-11.723
				v-25.267h-11.536v27.578c0,3.072,0.124,9.342,5.577,13.595c2.447,1.942,6.961,4.199,14.547,4.199
				c7.209,0,14.671-1.818,18.183-8.212c1.941-3.573,2.07-7.714,2.07-10.487v-4.051c-0.098,2.8-1.768,5.438-4.98,5.438"/>
			<path fill="#AD0000" d="M998.153,999.561c0,1.942,0.812,3.107,2.047,3.107c1.418,0,2.035-1.577,2.035-3.045
				c0-1.698-0.629-3.139-2.008-3.139c-1.239,0-2.074,1.2-2.074,3.107"/>
			<polygon fill="#AD0000" points="1018.845,1012.576 1018.845,977.152 1007.246,977.152 1007.246,994.014 1013.974,994.014 
				1013.974,996.679 1010.287,996.679 1010.287,998.574 1013.391,998.574 1013.391,1001.234 1010.287,1001.234 1010.287,1005.267 
				1007.246,1005.267 1007.246,1021.417 1034.082,1021.417 1039.222,1012.576 			"/>
			<path fill="#AD0000" d="M1038.697,1021.515c-0.74-0.003-1.339-0.604-1.337-1.345c0.003-0.739,0.604-1.338,1.344-1.336
				s1.337,0.602,1.337,1.34c0.011,0.729-0.572,1.33-1.301,1.341C1038.726,1021.515,1038.711,1021.515,1038.697,1021.515
				 M1039.925,1020.174c0.002-0.676-0.544-1.225-1.22-1.227c-0.676-0.003-1.226,0.543-1.228,1.219s0.544,1.226,1.22,1.228
				c0.667,0.011,1.216-0.521,1.227-1.188C1039.925,1020.195,1039.925,1020.185,1039.925,1020.174 M1038.802,1019.319
				c0.253,0,0.54,0.098,0.54,0.432c0.001,0.197-0.146,0.364-0.342,0.389c0.132,0.058,0.198,0.128,0.24,0.357
				c0.007,0.175,0.052,0.346,0.133,0.501h-0.342c-0.038-0.074-0.063-0.154-0.074-0.237c-0.016-0.085-0.027-0.17-0.035-0.256
				c-0.054-0.272-0.182-0.272-0.489-0.272v0.777h-0.307v-1.697L1038.802,1019.319z M1038.413,1020.011h0.253
				c0.225,0,0.361-0.058,0.361-0.236s-0.163-0.218-0.334-0.218h-0.28V1020.011L1038.413,1020.011z"/>
		</g>
	</g>
</g>
</svg>
